<?xml version="1.0" encoding="UTF-8" standalone="no"?><svg xmlns="http://www.w3.org/2000/svg" xmlns:xlink="http://www.w3.org/1999/xlink" clip-rule="evenodd" stroke-miterlimit="4.00" viewBox="0 0 1024 768"><desc>SVG generated by Keynote</desc><defs></defs><g transform="matrix(1.00, 0.00, -0.00, -1.00, 0.0, 768.0)"><path d="M 0.0 768.0 L 1024.0 768.0 L 1024.0 0.0 L 0.0 0.0 Z M 0.0 768.0 " fill="#FFFFFF"></path><g><clipPath id="clip-1"><path d="M 13.0 570.0 L 1012.0 570.0 L 1012.0 216.0 L 13.0 216.0 Z M 12.5 570.5 "></path></clipPath><g clip-path="url(#clip-1)"><image xlink:href="../../A6323910-9CE7-4642-AE93-10E02FF46294/assets/30253F2D2EF0FC653351838060568A6E.png" width="961.00" height="340.00" transform="matrix(1.04, 0.00, -0.00, -1.04, 13.0, 570.0)"></image></g></g><text xml:space="preserve" font-family="AvenirNext-Medium" font-size="20.0" fill="#838686" transform="matrix(1.00, 0.00, -0.00, -1.00, 36.0, 705.0)">B</text><text xml:space="preserve" font-family="AvenirNext-Medium" font-size="20.0" fill="#838686" transform="matrix(1.00, 0.00, -0.00, -1.00, 48.8, 705.0)">a</text><text xml:space="preserve" font-family="AvenirNext-Medium" font-size="20.0" fill="#838686" transform="matrix(1.00, 0.00, -0.00, -1.00, 59.7, 705.0)">c</text><text xml:space="preserve" font-family="AvenirNext-Medium" font-size="20.0" fill="#838686" transform="matrix(1.00, 0.00, -0.00, -1.00, 69.6, 705.0)">k</text><text xml:space="preserve" font-family="AvenirNext-Medium" font-size="20.0" fill="#838686" transform="matrix(1.00, 0.00, -0.00, -1.00, 80.1, 705.0)">b</text><text xml:space="preserve" font-family="AvenirNext-Medium" font-size="20.0" fill="#838686" transform="matrix(1.00, 0.00, -0.00, -1.00, 92.8, 705.0)">o</text><text xml:space="preserve" font-family="AvenirNext-Medium" font-size="20.0" fill="#838686" transform="matrix(1.00, 0.00, -0.00, -1.00, 105.0, 705.0)">n</text><text xml:space="preserve" font-family="AvenirNext-Medium" font-size="20.0" fill="#838686" transform="matrix(1.00, 0.00, -0.00, -1.00, 116.7, 705.0)">e</text><text xml:space="preserve" font-family="AvenirNext-Medium" font-size="20.0" fill="#838686" transform="matrix(1.00, 0.00, -0.00, -1.00, 128.1, 705.0)"> </text><text xml:space="preserve" font-family="AvenirNext-Medium" font-size="20.0" fill="#838686" transform="matrix(1.00, 0.00, -0.00, -1.00, 133.1, 705.0)">M</text><text xml:space="preserve" font-family="AvenirNext-Medium" font-size="20.0" fill="#838686" transform="matrix(1.00, 0.00, -0.00, -1.00, 151.2, 705.0)">V</text><text xml:space="preserve" font-family="AvenirNext-Medium" font-size="20.0" fill="#838686" transform="matrix(1.00, 0.00, -0.00, -1.00, 163.8, 705.0)">C</text></g></svg>